<?xml version="1.0" encoding="utf-8"?>
<!-- Generator: Adobe Illustrator 27.4.1, SVG Export Plug-In . SVG Version: 6.00 Build 0)  -->
<svg version="1.1" id="Layer_1" xmlns="http://www.w3.org/2000/svg" xmlns:xlink="http://www.w3.org/1999/xlink" x="0px" y="0px"
	 viewBox="0 0 339 124" style="enable-background:new 0 0 339 124;" xml:space="preserve">
<style type="text/css">
	.st0{fill:#FFFFFF;}
</style>
<g>
	<g>
		<path class="st0" d="M37.5,38.3c0.5,3.8,2.4,4.5,3.7,4.5c1.4,0,2.5-0.9,3.2-1.8c0.4-0.6,0.6-0.8,0.9-0.8c0.4,0,0.7,0.3,0.7,0.8
			c0,0.8-1.1,4.8-5.4,4.8c-3.6,0-6.1-2.6-6.1-7.5c0-5.5,3.2-7.4,6.1-7.4c4.2,0,5.2,3.8,5.2,5.2c0,1-0.6,1-0.9,1.1L37.5,38.3
			L37.5,38.3z M42.6,35.7C42.5,34,41.4,33,40.2,33c-1.9,0-2.7,1.7-2.8,3.6L42.6,35.7L42.6,35.7z"/>
		<path class="st0" d="M58.6,44.9c0,0.5-0.2,0.6-0.6,0.6h-2.2c-0.5,0-0.6-0.2-0.6-0.6v-9.3c0-1.1,0-2.8-2.3-2.8
			c-2.2,0-2.2,1.7-2.2,2.3v9.7c0,0.5-0.1,0.7-0.6,0.7H48c-0.4,0-0.6-0.1-0.6-0.6V34.1c0-1.1,0.1-1.7,1.3-2.3c1.4-0.7,3-0.9,4.6-0.9
			c2.7,0,3.7,0.7,4.1,1.1c1.2,1,1.2,2.3,1.2,3.3V44.9L58.6,44.9z"/>
		<path class="st0" d="M64.4,32.8v8.5c0,0.8,0,2.5,1.8,2.6c0.7,0,1.2,0,1.2,0.7c0,0.8-1.5,1.2-2.6,1.2c-1.5,0-2.4-0.5-3-1.2
			c-0.8-0.9-0.8-1.9-0.8-2.8v-9h-1.3c-0.5,0-0.5-0.1-0.5-1.1c0-0.3,0.1-0.4,0.5-0.4h1.3v-1.5c0-0.5,0.1-0.7,0.5-1l1.9-1.3
			c0.3-0.2,0.4-0.2,0.5-0.2c0.4,0,0.4,0.4,0.4,0.8v3.2h2.1c0.3,0,0.5,0,0.5,0.4c0,1,0,1.1-0.5,1.1L64.4,32.8L64.4,32.8z"/>
		<path class="st0" d="M70,38.3c0.5,3.8,2.4,4.5,3.7,4.5c1.4,0,2.5-0.9,3.2-1.8c0.4-0.6,0.6-0.8,0.9-0.8s0.7,0.3,0.7,0.8
			c0,0.8-1.1,4.8-5.4,4.8c-3.6,0-6.1-2.6-6.1-7.5c0-5.5,3.2-7.4,6.1-7.4c4.2,0,5.2,3.8,5.2,5.2c0,1-0.6,1-0.9,1.1L70,38.3L70,38.3z
			 M75.1,35.7C75,34,73.9,33,72.7,33c-1.9,0-2.7,1.7-2.8,3.6L75.1,35.7L75.1,35.7z"/>
		<path class="st0" d="M83.3,44.9c0,0.4-0.1,0.6-0.6,0.6h-2.2c-0.5,0-0.6-0.1-0.6-0.6V33.4c0-0.8,0.1-1.2,0.8-1.6c0.9-0.5,2.9-1,5-1
			c1.7,0,3.2,0.4,3.2,2.1c0,0.8-0.6,1.5-1.4,1.5c-0.7,0-1-0.4-1.4-1c-0.2-0.3-0.5-0.8-1.4-0.8c-1.4,0-1.4,1-1.4,1.6V44.9z"/>
		<path class="st0" d="M89.3,34.5c0-1.1,0-1.5,0.3-1.9c0.5-0.8,2.7-1.6,5.1-1.6c0.8,0,3,0.1,4.5,1.6c1.1,1.1,1.8,3,1.8,5.2
			c0,3.8-1.9,8-6,8c-0.9,0-1.7-0.2-2.5-0.7v6.2c0,0.4-0.1,0.6-0.5,0.6H90c-0.4,0-0.7-0.1-0.7-0.6L89.3,34.5L89.3,34.5z M92.6,43
			c0.9,0.5,1.6,0.6,1.9,0.6c2,0,3.1-2.4,3.1-5.3c0-3.8-1.6-5.4-3.3-5.4c-1.7,0-1.7,1.2-1.7,1.9V43z"/>
		<path class="st0" d="M105.9,44.9c0,0.4-0.1,0.6-0.6,0.6h-2.2c-0.5,0-0.6-0.1-0.6-0.6V33.4c0-0.8,0.1-1.2,0.8-1.6
			c0.9-0.5,2.9-1,5-1c1.7,0,3.2,0.4,3.2,2.1c0,0.8-0.6,1.5-1.4,1.5c-0.7,0-1-0.4-1.4-1c-0.2-0.3-0.5-0.8-1.4-0.8
			c-1.4,0-1.4,1-1.4,1.6L105.9,44.9L105.9,44.9z"/>
		<path class="st0" d="M113.6,29.3c-1.1,0-1.8-0.7-1.8-1.6c0-1,0.7-1.7,1.8-1.7c1.2,0,1.7,0.8,1.8,1.6
			C115.4,28.6,114.6,29.3,113.6,29.3z M115.3,44.9c0,0.4-0.1,0.6-0.6,0.6h-2.4c-0.4,0-0.5-0.1-0.5-0.6v-13c0-0.4,0.1-0.6,0.5-0.6
			h2.3c0.5,0,0.6,0.1,0.6,0.6V44.9z"/>
		<path class="st0" d="M123.5,37.3c1.2,0.6,3.2,1.6,3.2,4.2c0,1.5-0.8,4.3-4.9,4.3c-3.7,0-5-2.2-5-3.3c0-0.8,0.6-1.5,1.4-1.5
			c0.8,0,1.1,0.5,1.5,1.1c0.6,0.9,1.1,1.6,2.2,1.6c1,0,1.7-0.7,1.7-1.7c0-0.9-0.6-1.5-0.9-1.7c-0.4-0.3-2-1.1-2.7-1.4
			c-0.8-0.4-3-1.5-3-4c0-1.9,1.3-4,4.7-4c3.4,0,4.5,1.8,4.5,2.9c0,0.8-0.5,1.3-1.3,1.3c-0.8,0-1.2-0.6-1.5-1.1
			c-0.3-0.5-0.7-1.3-1.8-1.3c-1.1,0-1.6,0.9-1.6,1.6c0,1.4,1.2,1.9,2.1,2.3L123.5,37.3L123.5,37.3z"/>
		<path class="st0" d="M130.6,38.3c0.5,3.8,2.4,4.5,3.7,4.5c1.4,0,2.5-0.9,3.2-1.8c0.4-0.6,0.6-0.8,0.9-0.8c0.3,0,0.7,0.3,0.7,0.8
			c0,0.8-1.1,4.8-5.4,4.8c-3.6,0-6.1-2.6-6.1-7.5c0-5.5,3.2-7.4,6.1-7.4c4.2,0,5.2,3.8,5.2,5.2c0,1-0.6,1-0.9,1.1L130.6,38.3
			L130.6,38.3z M135.6,35.7c-0.1-1.8-1.2-2.8-2.4-2.8c-1.9,0-2.7,1.7-2.8,3.6L135.6,35.7L135.6,35.7z"/>
		<path class="st0" d="M37.5,63.3c0.5,3.8,2.4,4.5,3.7,4.5c1.4,0,2.5-0.9,3.2-1.8c0.4-0.6,0.6-0.8,0.9-0.8c0.4,0,0.7,0.3,0.7,0.9
			c0,0.8-1.1,4.8-5.4,4.8c-3.6,0-6.1-2.6-6.1-7.5c0-5.5,3.2-7.4,6.1-7.4c4.2,0,5.2,3.8,5.2,5.2c0,1-0.6,1-0.9,1.1L37.5,63.3
			L37.5,63.3z M42.6,60.8C42.5,59,41.4,58,40.2,58c-1.9,0-2.7,1.7-2.8,3.6L42.6,60.8L42.6,60.8z"/>
		<path class="st0" d="M58.6,67.1c0,1.2,0,2-1.1,2.7c-0.8,0.5-2.4,1.1-4.7,1.1c-5.2,0-5.5-2.7-5.5-4.5v-9.6c0-0.4,0.2-0.5,0.6-0.5
			h2.2c0.4,0,0.6,0.1,0.6,0.5V66c0,0.9,0,2.5,2.4,2.5c2.2,0,2.2-1.3,2.2-2.2v-9.5c0-0.4,0.1-0.6,0.6-0.6H58c0.4,0,0.6,0.1,0.6,0.6
			L58.6,67.1L58.6,67.1z"/>
		<path class="st0" d="M64.1,69.9c0,0.4-0.1,0.6-0.6,0.6h-2.2c-0.5,0-0.6-0.1-0.6-0.6V58.5c0-0.9,0.1-1.2,0.8-1.6c0.9-0.5,2.9-1,5-1
			c1.7,0,3.2,0.4,3.2,2.1c0,0.8-0.6,1.5-1.4,1.5c-0.7,0-1-0.4-1.4-1c-0.2-0.3-0.5-0.8-1.4-0.8c-1.4,0-1.4,1-1.4,1.6L64.1,69.9
			L64.1,69.9z"/>
		<path class="st0" d="M75.9,70.8c-4,0-6.4-3.2-6.4-7.5s2.5-7.5,6.5-7.5c4.4,0,6.3,4,6.4,7.3C82.4,67.2,80.1,70.8,75.9,70.8z
			 M75.8,58c-1.8,0-2.8,2.2-2.8,5c0,3.1,1.3,5.6,3.1,5.6c1.8,0,3-2.4,2.8-5.5C78.7,59.8,77.4,58,75.8,58"/>
		<path class="st0" d="M83.9,59.5c0-1.1,0-1.5,0.3-1.9c0.5-0.8,2.7-1.6,5.1-1.6c0.8,0,3,0.1,4.5,1.6c1.1,1.1,1.8,3,1.8,5.2
			c0,3.8-1.9,8-6,8c-0.9,0-1.7-0.2-2.5-0.7v6.2c0,0.4-0.1,0.6-0.5,0.6h-2.1c-0.4,0-0.7-0.1-0.7-0.6V59.5L83.9,59.5z M87.2,68
			c0.9,0.5,1.6,0.6,1.9,0.6c2,0,3.1-2.4,3.1-5.3c0-3.8-1.6-5.4-3.3-5.4c-1.7,0-1.7,1.2-1.7,1.9V68L87.2,68z"/>
		<path class="st0" d="M99.4,63.3c0.5,3.8,2.4,4.5,3.7,4.5c1.4,0,2.5-0.9,3.2-1.8c0.4-0.6,0.6-0.8,0.9-0.8c0.3,0,0.7,0.3,0.7,0.9
			c0,0.8-1.1,4.8-5.4,4.8c-3.6,0-6.1-2.6-6.1-7.5c0-5.5,3.2-7.4,6.1-7.4c4.2,0,5.2,3.8,5.2,5.2c0,1-0.6,1-0.9,1.1L99.4,63.3
			L99.4,63.3z M104.5,60.8c-0.1-1.8-1.2-2.8-2.4-2.8c-1.9,0-2.7,1.7-2.8,3.6L104.5,60.8L104.5,60.8z"/>
		<path class="st0" d="M46.4,94.9c0,0.5-0.2,0.6-0.6,0.6h-2.2c-0.5,0-0.6-0.2-0.6-0.6v-9.3c0-1.1,0-2.8-2.3-2.8
			c-2.2,0-2.2,1.7-2.2,2.3v9.7c0,0.5-0.1,0.7-0.6,0.7h-2.1c-0.4,0-0.6-0.1-0.6-0.6V84.1c0-1.1,0.1-1.7,1.3-2.3
			c1.4-0.7,3-0.9,4.6-0.9c2.7,0,3.7,0.7,4.1,1.1c1.2,1,1.2,2.3,1.2,3.3L46.4,94.9L46.4,94.9z"/>
		<path class="st0" d="M50.8,88.3c0.5,3.8,2.4,4.5,3.7,4.5c1.4,0,2.5-0.9,3.2-1.8c0.4-0.6,0.6-0.8,0.9-0.8s0.7,0.3,0.7,0.8
			c0,0.8-1.1,4.8-5.4,4.8c-3.6,0-6.1-2.6-6.1-7.5c0-5.5,3.2-7.4,6.1-7.4c4.2,0,5.2,3.8,5.2,5.2c0,1-0.6,1-0.9,1.1L50.8,88.3
			L50.8,88.3z M55.9,85.8C55.7,84,54.7,83,53.5,83c-1.9,0-2.7,1.7-2.8,3.6L55.9,85.8L55.9,85.8z"/>
		<path class="st0" d="M64.4,82.8v8.5c0,0.8,0,2.5,1.8,2.6c0.7,0,1.2,0,1.2,0.7c0,0.8-1.5,1.2-2.6,1.2c-1.5,0-2.4-0.5-3-1.2
			c-0.8-0.9-0.8-1.9-0.8-2.8v-9h-1.3c-0.5,0-0.5-0.1-0.5-1.1c0-0.3,0.1-0.4,0.5-0.4h1.3v-1.5c0-0.5,0.1-0.7,0.5-1l1.9-1.3
			c0.3-0.2,0.4-0.2,0.5-0.2c0.4,0,0.4,0.4,0.4,0.8v3.2h2.1c0.3,0,0.5,0,0.5,0.4c0,1,0,1.1-0.5,1.1H64.4L64.4,82.8z"/>
		<path class="st0" d="M75.6,87.6L73.3,95c-0.1,0.4-0.2,0.5-0.6,0.5H71c-0.4,0-0.5-0.1-0.6-0.5l-4-12.8c-0.1-0.3-0.1-0.4-0.1-0.5
			c0-0.4,0.4-0.4,0.5-0.4h2.2c0.5,0,0.7,0,0.8,0.5l2.5,9.2l2.7-9.2c0.1-0.2,0.1-0.5,0.4-0.5c0.1,0,0.6,0,0.9,0
			c0.3,0,0.4,0.1,0.5,0.5l2.8,9.2l2.5-9.2c0.1-0.4,0.2-0.5,0.6-0.5h1.6c0.2,0,0.5,0,0.5,0.3c0,0.1-0.1,0.3-0.1,0.5L80.9,95
			c-0.1,0.4-0.2,0.5-0.6,0.5h-1.7c-0.4,0-0.5-0.1-0.7-0.5L75.6,87.6z"/>
		<path class="st0" d="M91.4,95.9c-4,0-6.4-3.2-6.4-7.5s2.5-7.5,6.5-7.5c4.4,0,6.3,4,6.4,7.3C98,92.3,95.7,95.9,91.4,95.9z M91.3,83
			c-1.8,0-2.8,2.2-2.8,5c0,3.1,1.3,5.6,3.1,5.6c1.8,0,3-2.4,2.8-5.5C94.3,84.8,92.9,83,91.3,83"/>
		<path class="st0" d="M102.8,94.9c0,0.4-0.1,0.6-0.6,0.6H100c-0.5,0-0.6-0.1-0.6-0.6V83.5c0-0.8,0.1-1.2,0.8-1.6c0.9-0.5,2.9-1,5-1
			c1.7,0,3.2,0.4,3.2,2.1c0,0.8-0.6,1.5-1.4,1.5c-0.7,0-1-0.4-1.4-1c-0.2-0.3-0.5-0.8-1.4-0.8c-1.4,0-1.4,1-1.4,1.6V94.9z"/>
		<path class="st0" d="M115.4,87.3l5.6,7.3c0.1,0.2,0.2,0.3,0.2,0.5c0,0.3-0.3,0.4-0.5,0.4h-2.8c-0.5,0-0.6,0-0.9-0.4l-4.9-6.6V95
			c0,0.5-0.2,0.5-0.6,0.5h-2.2c-0.5,0-0.6-0.1-0.6-0.5V75.1c0-0.5,0.2-0.5,0.5-0.5h2.2c0.4,0,0.6,0,0.6,0.5v12.3l4.9-5.5
			c0.4-0.5,0.5-0.5,1.1-0.5h1.8c0.2,0,0.5,0,0.5,0.4c0,0.2-0.1,0.4-0.3,0.5L115.4,87.3L115.4,87.3z"/>
		<path class="st0" d="M46.2,106.9l2.4,5l5.4,0.9l-3.9,2.4l2.3,5l-4.9-3.5l-4.1,2.2l0.9-4.6l-4.7-3.8l5.4,0.8L46.2,106.9z"/>
		<path class="st0" d="M26,9.6l3.1,6.7l7.1,2.1l-5.1,2.3l2.9,6.7l-6.3-5.3l-5.3,2.2l1.2-5.7l-6.1-5.5l7,1.8L26,9.6z"/>
		<path class="st0" d="M28.9,95.7l2.7,5.7l6,1.2l-4.3,2.6l2.5,5.7l-5.3-4.1l-4.5,2.4l1-5.1l-5.2-4.3l5.9,1L28.9,95.7z"/>
		<path class="st0" d="M13.7,26.7l3.6,7.8l8.1,2.2l-5.9,3l3.3,7.8l-7.2-5.9l-6.1,2.8l1.4-6.8l-7-6.2l8.1,1.9L13.7,26.7z"/>
		<path class="st0" d="M15.8,75.1l3.1,6.8l7,1.5l-5.1,2.9l2.9,6.8l-6.3-4.9l-5.3,2.7l1.2-6.1l-6.1-5.2l7,1.3L15.8,75.1z"/>
		<path class="st0" d="M9.9,51.5l3.4,7.4l7.7,1.8l-5.5,3l3.1,7.4l-6.8-5.5l-5.8,2.8L7.2,62l-6.6-5.8l7.6,1.6L9.9,51.5z"/>
		<path class="st0" d="M62.9,110.4l2.3,4.6l5.1,0.8l-3.6,2.2l2.1,4.6l-4.6-3.2l-3.8,2.1l0.8-4.2l-4.5-3.4l5.1,0.7L62.9,110.4z"/>
		<path class="st0" d="M78.6,109.8l1.7,3.3l3.7,0.6l-2.7,1.6l1.6,3.3l-3.4-2.3l-2.8,1.5l0.6-3l-3.3-2.4l3.7,0.5L78.6,109.8z"/>
		<path class="st0" d="M91.2,104l1.7,3.2l3.7,0.6l-2.7,1.5l1.6,3.2l-3.4-2.2l-2.8,1.4l0.6-2.9l-3.3-2.4l3.7,0.5L91.2,104z"/>
		<path class="st0" d="M81.4,9.9l2.3,4.3l5,1.7l-3.5,1.1l2.1,4.3l-4.5-3.6l-3.7,1l0.8-3.4l-4.4-3.7l4.9,1.5L81.4,9.9z"/>
		<path class="st0" d="M63.5,2.4l2.6,5.1l5.7,1.9l-4,1.4l2.4,5.1L65,11.7L60.8,13l0.9-4.1l-4.9-4.3l5.6,1.7L63.5,2.4z"/>
		<path class="st0" d="M44.4,1.4l2.8,5.8l6.3,2L49,11l2.6,5.8L46,12.1l-4.7,1.6L42.4,9l-5.4-4.9l6.2,1.8L44.4,1.4z"/>
		<path class="st0" d="M159.1,0.2v123.5h179.7V0.2H159.1z M335.4,120.2H162.6V3.6h172.8L335.4,120.2L335.4,120.2z"/>
		<path class="st0" d="M245.3,29l3.6-2.7l3.6,2.7l-1.4-4.4l3.7-2.7h-4.6l-1.4-4.4l-1.4,4.4l-4.6,0l3.7,2.7L245.3,29z"/>
		<path class="st0" d="M226.4,34.2l3.6-2.7l3.6,2.7l-1.4-4.4l3.7-2.7h-4.6l-1.4-4.4l-1.4,4.4l-4.6,0l3.7,2.7L226.4,34.2z"/>
		<path class="st0" d="M216.3,36.7l-1.4,4.4l-4.6,0l3.7,2.7l-1.4,4.4l3.6-2.7l3.6,2.7l-1.4-4.4l3.7-2.7h-4.6L216.3,36.7z"/>
		<path class="st0" d="M211.2,64.6l3.6,2.7l-1.4-4.4l3.7-2.7h-4.6l-1.4-4.4l-1.4,4.4l-4.6,0l3.7,2.7l-1.4,4.4L211.2,64.6z"/>
		<path class="st0" d="M217.7,79.3l-1.4-4.4l-1.4,4.4l-4.6,0L214,82l-1.4,4.4l3.6-2.7l3.6,2.7l-1.4-4.4l3.7-2.7H217.7z"/>
		<path class="st0" d="M231.5,93.3l-1.4-4.4l-1.4,4.4l-4.6,0l3.7,2.7l-1.4,4.4l3.6-2.7l3.6,2.7l-1.4-4.4l3.7-2.7H231.5z"/>
		<path class="st0" d="M250.4,98.4L249,94l-1.4,4.4l-4.6,0l3.7,2.7l-1.4,4.4l3.6-2.7l3.6,2.7l-1.4-4.4l3.7-2.7H250.4z"/>
		<path class="st0" d="M269.2,93.3l-1.4-4.4l-1.4,4.4l-4.6,0l3.7,2.7l-1.4,4.4l3.6-2.7l3.6,2.7l-1.4-4.4l3.7-2.7H269.2z"/>
		<path class="st0" d="M283,79.3l-1.4-4.4l-1.4,4.4l-4.6,0l3.7,2.7l-1.4,4.4l3.6-2.7l3.6,2.7l-1.4-4.4l3.7-2.7H283z"/>
		<path class="st0" d="M292.6,60.1h-4.6l-1.4-4.4l-1.4,4.4l-4.6,0l3.7,2.7l-1.4,4.4l3.6-2.7l3.6,2.7l-1.4-4.4L292.6,60.1z"/>
		<path class="st0" d="M278,48.1l3.6-2.7l3.6,2.7l-1.4-4.4l3.7-2.7H283l-1.4-4.4l-1.4,4.4l-4.6,0l3.7,2.7L278,48.1z"/>
		<path class="st0" d="M267.9,22.7l-1.4,4.4l-4.6,0l3.7,2.7l-1.4,4.4l3.7-2.7l3.6,2.7l-1.4-4.4l3.7-2.7h-4.6L267.9,22.7z"/>
	</g>
</g>
</svg>
